Simulation
nRows=20
nColumns=15
endheader
time  TH_x TH_y TH_z SC_y  SC_z  SC_x  AC_y  AC_z  AC_x  GH_y  GH_z  GH_yy  EL_x  PS_y
0.0  0.000000  0.000000  0.000000  -40.97484877243665  6.293857566463187  5.290427962726946  38.47250073212277  -1.9465925338556813  -7.909520926040837  109.37435930383502  6.909819197915701  -77.69568880868762  22.65476499351859  120.000000
0.05745  0.000000  0.000000  0.000000  -39.11622544960474  5.085719287624971  4.201905363299525  39.6743537392984  -2.39884356068589  -6.565624863330736  61.15599239612629  5.984244602126651  -33.06348052781153  22.091867233162386  120.000000
0.1149  0.000000  0.000000  0.000000  -37.2546131553235  3.798695480906101  2.932721290156062  41.01530985131463  -2.9843188388637327  -5.098435308069459  24.62734007782697  8.801353920025193  -0.07977362462617343  21.705199730890104  120.000000
0.17235  0.000000  0.000000  0.000000  -35.55668804500695  2.3186810152406805  1.5416999410452257  42.532200574392334  -3.8028357134445643  -3.4324541607404457  7.2058207358852515  13.369773079974225  13.862648890755759  21.570558903032055  120.000000
0.2298  0.000000  0.000000  0.000000  -34.17465872826701  0.5297106771275992  0.11651913439314315  44.328887340216795  -4.978714558950915  -1.5055915252133796  -2.644303549641274  18.90636457787546  20.35579800897031  21.711600419492036  120.000000
0.28725  0.000000  0.000000  0.000000  -33.16511010542434  -1.6047123966584675  -1.26774871714703  46.42201182960056  -6.60207750376748  0.6698382065924532  -9.372106407133689  25.28445660729361  23.866429409232676  22.06806734204268  120.000000
0.3447  0.000000  0.000000  0.000000  -32.53551998487685  -3.9780870173556337  -2.5203534507619145  48.635767521126176  -8.68313083637912  3.025741040930708  -14.510114648022324  32.347610503495176  25.881839590739467  22.524443803442495  120.000000
0.40215  0.000000  0.000000  0.000000  -32.21956193473367  -6.378786313138366  -3.601380161836678  50.70047748492674  -11.048638239767218  5.466515754121349  -18.58417997444292  39.747086945846945  26.8737150616606  22.941477983594865  120.000000
0.4596  0.000000  0.000000  0.000000  -32.11453773402154  -8.514321024445938  -4.571440878365919  52.43404900351862  -13.305675124492325  7.901280122987057  -21.660505275845765  46.954942947429956  26.91281173136268  23.221993296774485  120.000000
0.51705  0.000000  0.000000  0.000000  -32.155886535523265  -10.070239798267016  -5.500310099523718  53.799892378366025  -14.976473795350762  10.174545703258278  -23.661359838982502  53.44256530734829  25.983161129159473  23.34046335563555  120.000000
0.5745  0.000000  0.000000  0.000000  -32.28044711421464  -10.873409832088893  -6.392784837135029  54.876486465368686  -15.68816102294307  12.088750032939856  -24.651860234585794  58.905249756650164  24.19449207389452  23.27850598373019  120.000000
0.63195  0.000000  0.000000  0.000000  -32.51041648546512  -10.870088134947707  -7.249869728492483  55.83031426610553  -15.271897455879337  13.62427462736478  -24.922338576293825  63.28857970590418  21.85141296720215  23.034379246594032  120.000000
0.6894  0.000000  0.000000  0.000000  -32.951448861417674  -10.100744730891  -8.067739127465867  56.897529352859316  -13.727002231539943  14.978812610994035  -24.990119458465866  66.71903308934085  19.54149667549362  22.660315060699443  120.000000
0.74685  0.000000  0.000000  0.000000  -33.740348102549866  -8.652622643210869  -8.840109842560194  58.251933243003336  -11.132667977206014  16.38386217232711  -25.246920581980064  69.28294317534869  17.72467121614469  22.218888295300392  120.000000
0.8043  0.000000  0.000000  0.000000  -34.94074107081955  -6.60653700348851  -9.577422432018492  59.84042651634223  -7.614983357010502  17.91655080407189  -25.705526826171564  70.9154999464758  16.393014991463666  21.749822779477686  120.000000
0.86175  0.000000  0.000000  0.000000  -36.43671009113129  -4.128857195191468  -10.271151528565232  61.445768292071726  -3.361362571108826  19.520833629831454  -26.231975785621596  71.60375225754692  15.319827495617474  21.275499782499395  120.000000
0.9192  0.000000  0.000000  0.000000  -38.02456867343597  -1.5004679161632237  -10.91614389693338  62.80545797512942  1.3415600506637402  21.08736225866344  -26.58341167583467  71.56060556431024  14.138467376286082  20.80688910169849  120.000000
0.97665  0.000000  0.000000  0.000000  -39.52224183176556  1.0008599168368448  -11.493426869840826  63.74797987573543  6.161371000322852  22.511292188715775  -26.554545259388266  71.14163051823449  12.56039716369245  20.344185788319685  120.000000
1.0341  0.000000  0.000000  0.000000  -40.83604772653819  3.2437562588837414  -11.901350304462856  64.24658839864271  10.827905753744352  23.745663275045548  -26.17351290514386  70.57816534036199  10.639013574966398  19.896371294751514  120.000000
1.09155  0.000000  0.000000  0.000000  -41.97855046819681  5.1988684173462945  -12.00460577756639  64.35051843423689  15.111516541299485  24.802622866065413  -25.559920991128095  69.98105439631728  8.601434023550537  19.473232902139898  120.000000
